<?xml version="1.0" encoding="UTF-8"?>
<svg id="Layer_1" xmlns="http://www.w3.org/2000/svg" xmlns:xlink="http://www.w3.org/1999/xlink" version="1.1" viewBox="0 0 36 24">
  <!-- Generator: Adobe Illustrator 29.3.1, SVG Export Plug-In . SVG Version: 2.1.0 Build 151)  -->
  <defs>
    <style>
      .st0 {
        fill: #fff;
      }
    </style>
  </defs>
  <path class="st0" d="M15.8,12.5c-.7,0-1.1.5-1.1,1.1s.5,1.1,1.1,1.1,1.1-.5,1.1-1.1c0-.6-.6-1.1-1.1-1.1Z"/>
  <path class="st0" d="M8.6,16.8c0-.3-.2-.6-.5-.7V5.6h-.4v10.5c-.4.1-.6.4-.6.8s0,.5.3.6l-.7,2.4h2.3l-.8-2.4c.2-.2.4-.4.4-.7Z"/>
  <path class="st0" d="M21.4,12.5c-.7,0-1.1.5-1.1,1.1s.5,1.1,1.1,1.1,1.1-.5,1.1-1.1c.1-.6-.5-1.1-1.1-1.1Z"/>
  <path class="st0" d="M26,7.1l-.4-3.7,2.5-.3v-1.1L7,4.2v1.2c0,0,2.5-.3,2.5-.3l.4,3.7h0c-.5,1.2-.8,2.4-.8,3.9,0,5.2,4.2,9.4,9.4,9.4s9.4-4.2,9.4-9.4-.7-4.1-1.9-5.6h0ZM18.6,20.2c-4,0-7.3-3.1-7.5-7.1,1.6-1,2.5-2.7,2.4-4.7l10.4-1.1h0c0,0-.1.2-.1.4-.5,2.3.6,4.4,2.4,5.6-.4,3.8-3.7,6.9-7.6,6.9Z"/>
</svg>