<?xml version="1.0" encoding="UTF-8"?>
<svg id="Layer_1" xmlns="http://www.w3.org/2000/svg" version="1.1" viewBox="0 0 90.3 24">
  <!-- Generator: Adobe Illustrator 29.4.0, SVG Export Plug-In . SVG Version: 2.1.0 Build 152)  -->
  <defs>
    <style>
      .st0 {
        fill: none;
      }
    </style>
  </defs>
  <path class="st0" d="M.6-.6h24v24H.6s0-24,0-24Z"/>
  <path d="M12.3,19.6c0-.1-.1-.2-.1-.2h-6.6v-10h14v.3h1.1c.4,0,.7.1.9.4v-4.7c0-1.1-.9-2-2-2h-1V1.4h-2v2h-8V1.4h-2v2h-1c-1.1,0-2,.9-2,2v14c0,1.1.9,2,2,2h7.8l-1.1-1.8ZM5.6,5.4h14v2H5.6s0-2,0-2Z"/>
  <path d="M15.6,11.7l.8.3c.1-.1.2-.1.3-.2v-.5c.1,0-1,0-1,0v.4h0Z"/>
  <rect x="7.6" y="11.4" width="2" height="2"/>
  <rect x="7.6" y="15.4" width="2" height="2"/>
  <path d="M11.6,17.4h1.7l.2-.2v-.4l-1-.8h0c-.2-.2-.3-.4-.4-.6h-.6v2h.1Z"/>
  <path d="M11.6,13.4h1.3l.7-1.2h0v-.8h-2v2Z"/>
  <path d="M24.3,17.6c0-.2.1-.4.1-.6s0-.4-.1-.6l1.4-1.1c.1-.1.1-.3.1-.4l-1.3-2.2c-.1-.1-.3-.2-.4-.1l-1.6.7c-.3-.3-.7-.5-1.1-.6l-.4-1.8c0-.1-.1-.3-.3-.3h-2.6c-.1,0-.3.1-.3.3l-.2,1.6c-.3.1-.7.3-1.1.6l-1.6-.7c-.1,0-.3,0-.4.2l-1.3,2.2c-.1.1,0,.3.1.4l1.4,1.1c0,.2-.1.4-.1.6s0,.4.1.6l-1.4,1.1c-.1.1-.1.3-.1.4l1.3,2.2c.1.1.3.2.4.1l1.6-.7c.3.3.7.5,1.1.6l.3,1.7c.1.1.1.3.3.3h2.6c.1,0,.3-.1.3-.3l.3-1.7c.4-.1.7-.4,1.1-.6l1.6.7c.1.1.3,0,.4-.1l1.3-2.2c.1-.1.1-.3-.1-.4l-1.4-1ZM19.4,19.5c-1.4,0-2.4-1.1-2.4-2.4s1.1-2.4,2.4-2.4,2.4,1.1,2.4,2.4-1,2.4-2.4,2.4Z"/>
  <g>
    <path d="M35.1,4c-1-.1-1.8-.2-2.3-.2s-.7,0-.8,0c0,0-.1,0-.1.2s0,.1.1.2.4.1.8.2c.5.1.8.2,1.1.3s.6.2.8.4.4.4.5.7.1.6.1,1.1c0,.9-.2,1.6-.7,1.9-.5.4-1.2.6-2.2.6s-1,0-1.5,0c-.5,0-.9-.1-1.2-.2h-.4c0,0,.1-2,.1-2,1.1.2,2,.2,2.8.2s.6,0,.6-.3,0-.1-.1-.2c0,0-.3,0-.7-.1-1-.2-1.7-.4-2.1-.8s-.6-.9-.6-1.7.2-1.7.7-2,1.2-.6,2.2-.6,1.5,0,2.5.2h.5c0,0,0,2.1,0,2.1Z"/>
    <path d="M38.5,5.7v1.1c0,.2,0,.3,0,.4,0,0,.1,0,.3,0h.5s0,1.9,0,1.9c-.6.1-1.1.2-1.5.2-.7,0-1.2-.1-1.5-.4-.3-.3-.4-.8-.4-1.6v-1.7h-.4v-2h.4v-1.1h2.5v1.1h.9v2h-.9Z"/>
    <path d="M42.4,9.3h-2.5V3.7h2.5v.5c.5-.4.9-.7,1.2-.7v2.3c-.2,0-.6,0-1,.3h-.2v3.1Z"/>
    <path d="M47.2,3.7h2.5v5.6h-2.4v-.3c-.5.3-.9.4-1.3.4-.8,0-1.3-.2-1.6-.7-.3-.5-.5-1.2-.5-2.2v-2.9h2.5v2.7c0,.3,0,.6,0,.7,0,.1.2.2.3.2h.5v-3.6Z"/>
    <path d="M52.8,9.3h-2.5V3.7h2.5v.3c.5-.3,1-.4,1.4-.4s.8.2,1.1.5c.5-.3,1.1-.5,1.7-.5.9,0,1.4.2,1.8.7.3.5.5,1.2.5,2.2v2.8h-2.5v-2.5c0-.7-.1-1.1-.4-1.1h-.5c0,.2,0,.5,0,1v2.6h-2.5v-2.5c0-.7-.1-1.1-.4-1.1h-.4v3.6Z"/>
    <path d="M62.1,7.2c0,.3.2.4.5.4.7,0,1.5,0,2.2,0h.4s0,1.6,0,1.6c-1,.2-1.9.3-2.9.3s-1.7-.2-2.1-.7-.6-1.2-.6-2.2.2-1.7.7-2.3c.5-.5,1.2-.8,2.2-.8s1.7.2,2.2.6.7,1.1.7,1.9v1.1h-3.3ZM62.9,5.9c0-.2,0-.4,0-.5s-.2-.1-.3-.1-.3,0-.3.1,0,.2,0,.5h.8Z"/>
    <path d="M68.3,9.3h-2.5V3.7h2.5v.3c.5-.3.9-.4,1.2-.4.8,0,1.3.2,1.7.6.3.4.5,1.2.5,2.3v2.8h-2.5v-2.6c0-.6-.1-1-.4-1h-.5v3.6Z"/>
    <path d="M74.9,5.7v1.1c0,.2,0,.3,0,.4,0,0,.1,0,.3,0h.5s0,1.9,0,1.9c-.6.1-1.1.2-1.5.2-.7,0-1.2-.1-1.5-.4-.3-.3-.4-.8-.4-1.6v-1.7h-.4v-2h.4v-1.1h2.5v1.1h.9v2h-.9Z"/>
    <path d="M76.3,3.4v-1.7h2.5v1.7h-2.5ZM76.3,9.3V3.7h2.5v5.6h-2.5Z"/>
    <path d="M35.1,10.7v7.6h-2.4v-.2c-.4.3-.8.4-1.2.4-.8,0-1.4-.2-1.7-.7-.3-.5-.5-1.2-.5-2.2,0-2,.8-2.9,2.4-2.9h.9c0,0,0-1.9,0-1.9h2.5ZM32.3,14.6c-.2,0-.3,0-.4.2,0,.2,0,.4,0,.7s0,.5,0,.7c0,.2.2.2.4.2h.3v-1.8c-.2,0-.3,0-.4,0Z"/>
    <path d="M35.7,12.4v-1.7h2.5v1.7h-2.5ZM35.7,18.3v-5.6h2.5v5.6h-2.5Z"/>
    <path d="M41.9,20.4c-.6-.2-.9-.6-.9-1.3s0-.5.2-.7c.1-.2.3-.4.5-.6-.3-.2-.4-.5-.4-.8s0-.2.2-.3.2-.2.3-.3h.2c-.6-.4-.9-.9-.9-1.7s.2-1.3.6-1.6c.4-.3,1.1-.4,2.1-.4s.6,0,1,0h.2s2,0,2,0v1.4h-.5c0,.2,0,.3,0,.5,0,.8-.2,1.3-.6,1.6-.4.3-1.1.4-2.1.4s-.3,0-.4,0c0,0,0,0,0,.1,0,0,.4.1,1.3.1s1.5.1,1.8.4c.3.3.5.7.5,1.4s-.2,1.2-.7,1.6-1.2.6-2.1.6-1.6,0-2.2-.3ZM43,18.9c0,0,.3.1.8.1s.8,0,.8-.2,0-.1-.1-.1c0,0-.3,0-.6,0h-.8c0,0,0,0,0,.2ZM43.5,14.9c0,0,.2,0,.3,0s.3,0,.3,0c0,0,0-.2,0-.3s0-.2,0-.3c0,0-.2,0-.3,0s-.3,0-.3,0c0,0,0,.2,0,.3s0,.2,0,.3Z"/>
    <path d="M49.6,16.2c0,.3.2.4.5.4.7,0,1.5,0,2.2,0h.4s0,1.6,0,1.6c-1,.2-1.9.3-2.9.3s-1.7-.2-2.1-.7-.6-1.2-.6-2.2.2-1.7.7-2.3c.5-.5,1.2-.8,2.2-.8s1.7.2,2.2.6c.5.4.7,1.1.7,1.9v1.1h-3.3ZM50.4,14.9c0-.2,0-.4,0-.5,0,0-.2-.1-.3-.1s-.3,0-.3.1c0,0,0,.2,0,.5h.8Z"/>
    <path d="M58.1,14.6c-.9-.1-1.5-.2-1.9-.2s-.5,0-.5,0,.3,0,.9.2c.6,0,1,.2,1.3.5s.4.7.4,1.4-.2,1.1-.6,1.4c-.4.3-1,.5-1.8.5s-.9,0-1.3,0-.7,0-.9-.1h-.3c0,0,0-1.7,0-1.7.9.1,1.5.2,1.9.2s.5,0,.5,0-.3,0-.9-.2c-.6,0-1-.2-1.3-.5-.3-.3-.4-.7-.4-1.3s.2-1.3.6-1.6,1-.5,1.8-.5,1.6,0,2.1.2h.3c0,0,0,1.8,0,1.8Z"/>
    <path d="M61.4,14.7v1.1c0,.2,0,.3,0,.4,0,0,.1,0,.3,0h.5s0,1.9,0,1.9c-.6.1-1.1.2-1.5.2-.7,0-1.2-.1-1.5-.4-.3-.3-.4-.8-.4-1.6v-1.7h-.4v-2h.4v-1.1h2.5v1.1h.9v2h-.9Z"/>
    <path d="M62.8,12.4v-1.7h2.5v1.7h-2.5ZM62.8,18.3v-5.6h2.5v5.6h-2.5Z"/>
    <path d="M66.5,13.3c.5-.5,1.2-.7,2.2-.7s1.7.2,2.2.7c.5.5.7,1.2.7,2.2s-.2,1.8-.7,2.2c-.5.5-1.2.7-2.2.7s-1.7-.2-2.2-.7c-.5-.5-.7-1.2-.7-2.2s.2-1.8.7-2.2ZM68.3,16.2c0,.1.2.2.4.2s.3,0,.4-.2c0-.1,0-.4,0-.7s0-.6,0-.7c0-.1-.2-.2-.4-.2s-.3,0-.4.2,0,.4,0,.7,0,.6,0,.7Z"/>
    <path d="M74.5,18.3h-2.5v-5.6h2.5v.3c.5-.3.9-.4,1.2-.4.8,0,1.3.2,1.7.6s.5,1.2.5,2.3v2.8h-2.5v-2.6c0-.6-.1-1-.4-1h-.5v3.6Z"/>
    <path d="M80.8,16.2c0,.3.2.4.5.4.7,0,1.5,0,2.2,0h.4s0,1.6,0,1.6c-1,.2-1.9.3-2.9.3s-1.7-.2-2.1-.7-.6-1.2-.6-2.2.2-1.7.7-2.3c.5-.5,1.2-.8,2.2-.8s1.7.2,2.2.6c.5.4.7,1.1.7,1.9v1.1h-3.3ZM81.6,14.9c0-.2,0-.4,0-.5,0,0-.2-.1-.3-.1s-.3,0-.3.1c0,0,0,.2,0,.5h.8Z"/>
  </g>
</svg>