<?xml version="1.0" encoding="UTF-8"?>
<svg id="Layer_1" xmlns="http://www.w3.org/2000/svg" xmlns:xlink="http://www.w3.org/1999/xlink" version="1.1" viewBox="0 0 100 24">
  <!-- Generator: Adobe Illustrator 29.3.1, SVG Export Plug-In . SVG Version: 2.1.0 Build 151)  -->
  <defs>
    <style>
      .st0 {
        fill: none;
      }
    </style>
  </defs>
  <g>
    <path d="M34,11.7h-3.5V3.7h3.4c1.4,0,2.4.3,3,.9.6.6.9,1.6.9,3s-.3,2.4-.9,3.1c-.6.7-1.6,1-2.9,1ZM34.9,7.7c0-.7,0-1.2-.2-1.4s-.5-.4-1-.4h-.5v3.5h.5c.4,0,.7-.1.9-.3.2-.2.3-.7.3-1.4Z"/>
    <path d="M38.9,6.2c.5-.5,1.3-.8,2.4-.8s1.9.2,2.4.8c.5.5.8,1.3.8,2.4s-.3,1.9-.8,2.4c-.5.5-1.3.7-2.4.7s-1.9-.2-2.4-.7c-.5-.5-.8-1.3-.8-2.4s.3-1.9.8-2.4ZM40.9,9.5c0,.1.2.2.4.2s.3,0,.4-.2.1-.4.1-.8,0-.7-.1-.8c0-.1-.2-.2-.4-.2s-.3,0-.4.2c0,.1-.1.4-.1.8s0,.7.1.8Z"/>
    <path d="M47.9,5.5c.6,0,1.2,0,1.8.2h.3c0,0,0,2.2,0,2.2-.8,0-1.4,0-1.7,0s-.5,0-.6.2c-.1.1-.2.3-.2.7s0,.5.2.7c0,.1.3.2.5.2h1.7c0,0,0,2,0,2-.8.2-1.5.3-2.2.3-1.2,0-1.9-.2-2.4-.7-.4-.5-.6-1.3-.6-2.5s.2-2,.7-2.5c.5-.5,1.2-.7,2.3-.7Z"/>
    <path d="M53.2,9.5c0,.3.2.4.5.4.8,0,1.6,0,2.4,0h.5s0,1.7,0,1.7c-1.1.2-2.1.3-3.2.3s-1.8-.2-2.3-.7c-.5-.5-.7-1.3-.7-2.4s.3-1.9.8-2.5c.5-.6,1.3-.8,2.4-.8s1.9.2,2.4.7c.5.5.8,1.2.8,2.1v1.2h-3.6ZM54.1,8c0-.2,0-.4-.1-.5,0,0-.2-.1-.4-.1s-.3,0-.3.1c0,0,0,.3-.1.5h.9Z"/>
    <path d="M59.9,11.7h-2.7v-6.1h2.7v.3c.5-.3.9-.5,1.3-.5.9,0,1.5.2,1.8.7.3.5.5,1.3.5,2.5v3h-2.7v-2.9c0-.7-.1-1-.4-1h-.5v3.9Z"/>
    <path d="M67.1,7.8v1.2c0,.2,0,.3,0,.4,0,0,.2.1.3.1h.5s0,2.1,0,2.1c-.7.1-1.2.2-1.6.2-.7,0-1.3-.2-1.6-.5-.3-.3-.5-.9-.5-1.7v-1.9h-.5v-2.2h.5v-1.2h2.7v1.2h1v2.2h-1Z"/>
    <path d="M71.2,9.5c0,.3.2.4.5.4.8,0,1.6,0,2.4,0h.5s0,1.7,0,1.7c-1.1.2-2.1.3-3.2.3s-1.8-.2-2.3-.7c-.5-.5-.7-1.3-.7-2.4s.3-1.9.8-2.5c.5-.6,1.3-.8,2.4-.8s1.9.2,2.4.7c.5.5.8,1.2.8,2.1v1.2h-3.6ZM72.1,8c0-.2,0-.4-.1-.5,0,0-.2-.1-.4-.1s-.3,0-.3.1c0,0,0,.3-.1.5h.9Z"/>
  </g>
  <g>
    <circle cx="9.6" cy="13.1" r="1.2"/>
    <circle cx="15.6" cy="13.1" r="1.2"/>
    <path d="M3.5,13.2c2.6-1,4.2-3.6,3.6-6.5,0-.5-.3-.9-.6-1.3-2.1,1.8-3.4,4.7-3,7.8Z"/>
    <rect x="24.5" y="7.2" width="2.8" height="3.9" transform="translate(1.1 21) rotate(-45)"/>
    <polygon points="23.1 9.1 14.4 17.8 14.1 21 17.2 20.6 25.9 11.9 23.1 9.1"/>
    <path d="M13.2,20.2h0c-.2-.1-.4-.1-.6-.1-4.4,0-8-3.6-8-8s3.5-8,8-8,7,2.7,7.8,6.3l1.5-1.5c-1.3-4-4.9-6.8-9.3-6.8S2.5,6.6,2.5,12.1s4.5,10,10,10h.4l.2-1.6v-.3Z"/>
    <path d="M19.6,11.2l1.7-1.8c-.5-1.6-1.4-3-2.6-4-.3.4-.4.9-.6,1.4-.4,1.8.1,3.5,1.2,4.7l.3-.3Z"/>
    <circle cx="1.2" cy="16.5" r=".8"/>
    <rect x="3.1" y="3" width="17.3" height="4.1" transform="translate(-.5 1.3) rotate(-6.2)"/>
    <rect x=".4" y="1.9" width="22.5" height="1.3" transform="translate(-.2 1.3) rotate(-6.2)"/>
    <g>
      <line class="st0" x1="1.2" y1="4.6" x2="1.2" y2="16.5"/>
      <rect x="1" y="4.6" width=".5" height="11.9"/>
    </g>
    <polygon points="1.2 15.6 0 19.6 2.4 19.6 1.2 15.6"/>
  </g>
</svg>