<?xml version="1.0" encoding="UTF-8"?>
<svg id="Layer_1" xmlns="http://www.w3.org/2000/svg" version="1.1" viewBox="0 0 90 24">
  <!-- Generator: Adobe Illustrator 29.4.0, SVG Export Plug-In . SVG Version: 2.1.0 Build 152)  -->
  <g>
    <path d="M12.8,19v-.6c.1,0,.5-.4.5-.4v-.2c.1,0,.2,0,.3-.1l2.7-2.7v-.5c.2-1.5-.5-2.7-2.9-3.5-1.8-.6-2.6-1-2.6-1.9s1.1-1.4,1.8-1.4c1.3,0,1.8,1,1.9,1.3l1.6-.7c-.1-.3-.8-1.8-2.7-2.1v-1.2h-1.8v1.3c-2.6.6-2.6,2.9-2.6,3,0,2.3,2.2,2.9,3.3,3.3,1.6.6,2.3,1.1,2.3,2s-1.1,1.6-2,1.6c-1.8,0-2.3-1.9-2.4-2.1l-1.7.7c.6,2.2,2.3,2.8,3,3v1.2h1.3Z"/>
    <path d="M12.7,20h-.1c-4.4,0-8-3.6-8-8s3.6-8,8-8,7.3,3,7.9,6.8l1.7-1.7c-1.3-4.1-5.1-7.1-9.6-7.1S2.6,6.5,2.6,12s4.4,9.9,9.9,10l.2-2Z"/>
  </g>
  <polygon points="13.9 18.9 13.5 22 16.6 21.6 25.3 12.9 22.6 10.2 13.9 18.9"/>
  <rect x="23.9" y="8.2" width="2.8" height="3.9" transform="translate(.2 20.9) rotate(-45)"/>
  <g>
    <path d="M34,7.7h-.7v2.1h-2.8V1.8h3.4c1.2,0,2.1.2,2.7.6.5.4.8,1.2.8,2.3s-.3,1.9-.9,2.4l.8,2.7h-2.8l-.5-2.1ZM34,5.5c.4,0,.6-.3.6-.8s-.2-.8-.7-.8h-.6v1.6h.7Z"/>
    <path d="M40.4,7.6c0,.3.2.4.5.4.8,0,1.6,0,2.4,0h.5s0,1.7,0,1.7c-1.1.2-2.1.3-3.2.3s-1.8-.2-2.3-.7c-.5-.5-.7-1.3-.7-2.4s.3-1.9.8-2.5,1.3-.8,2.4-.8,1.9.2,2.4.7c.5.5.8,1.2.8,2.1v1.2h-3.6ZM41.3,6.1c0-.2,0-.4-.1-.5,0,0-.2-.1-.4-.1s-.3,0-.3.1c0,0-.1.3-.1.5h.9Z"/>
    <path d="M47.4,5.9v1.2c0,.2,0,.3,0,.4,0,0,.2.1.3.1h.5s0,2.1,0,2.1c-.7.1-1.2.2-1.6.2-.7,0-1.3-.2-1.6-.5-.3-.3-.5-.9-.5-1.7v-1.9h-.5v-2.2h.5v-1.2h2.7v1.2h1v2.2h-1Z"/>
    <path d="M51.9,5.9v1.2c0,.2,0,.3,0,.4,0,0,.2.1.3.1h.5s0,2.1,0,2.1c-.7.1-1.2.2-1.6.2-.7,0-1.3-.2-1.6-.5-.3-.3-.5-.9-.5-1.7v-1.9h-.5v-2.2h.5v-1.2h2.7v1.2h1v2.2h-1Z"/>
    <path d="M55.9,7.6c0,.3.2.4.5.4.8,0,1.6,0,2.4,0h.5s0,1.7,0,1.7c-1.1.2-2.1.3-3.2.3s-1.8-.2-2.3-.7-.7-1.3-.7-2.4.3-1.9.8-2.5c.5-.6,1.3-.8,2.4-.8s1.9.2,2.4.7c.5.5.8,1.2.8,2.1v1.2h-3.6ZM56.8,6.1c0-.2,0-.4-.1-.5,0,0-.2-.1-.4-.1s-.3,0-.3.1c0,0,0,.3-.1.5h.9Z"/>
  </g>
</svg>