<?xml version="1.0" encoding="UTF-8"?>
<svg id="Layer_1" xmlns="http://www.w3.org/2000/svg" version="1.1" viewBox="0 0 90 24">
  <!-- Generator: Adobe Illustrator 29.4.0, SVG Export Plug-In . SVG Version: 2.1.0 Build 152)  -->
  <g>
    <path d="M33,8h-.3v1.6h-2.6V2.2h2.9c1.2,0,2,.2,2.5.6s.8,1.2.8,2.3-.3,1.9-.8,2.3c-.5.4-1.4.6-2.5.6ZM32.7,6h.2c.3,0,.5,0,.7-.2.1-.1.2-.4.2-.7s0-.6-.2-.7c-.1-.1-.4-.2-.7-.2h-.2v1.8Z"/>
    <path d="M42.1,5.8v2.1c0,0,.2,0,.3.1v1.6c-.6,0-1,.1-1.2.1s-.4,0-.6,0c-.2,0-.3-.1-.4-.2h0c-.5.2-1,.3-1.7.3s-1.1-.1-1.5-.4c-.3-.3-.5-.8-.5-1.4s.2-1.1.6-1.3,1-.4,1.8-.4h.8c0-.3-.2-.3-.5-.3-.7,0-1.3,0-2,.1h-.4s0-1.6,0-1.6c1-.3,1.9-.4,2.7-.4s1.5.1,1.9.4c.5.3.7.8.7,1.6ZM39.2,8.1c.1,0,.3,0,.4-.2v-.4h-.4c-.2,0-.3.1-.3.3s0,.3.2.3Z"/>
    <path d="M43.5,11.8c-.6-.2-.9-.6-.9-1.3s0-.5.2-.7c.1-.2.3-.4.5-.6-.3-.2-.4-.5-.4-.8s0-.2.2-.3c.1-.1.2-.2.3-.3h.2c-.6-.4-.9-.9-.9-1.7s.2-1.3.6-1.6c.4-.3,1.1-.4,2.1-.4s.6,0,1,0h.2s2,0,2,0v1.4h-.5c0,.2,0,.3,0,.5,0,.8-.2,1.3-.6,1.6-.4.3-1.1.4-2.1.4s-.3,0-.4,0c0,0,0,0,0,.1,0,0,.4.1,1.3.1s1.4.1,1.8.4.5.7.5,1.4-.2,1.2-.7,1.6c-.5.4-1.2.6-2.1.6s-1.6,0-2.2-.3ZM44.6,10.2c0,0,.3.1.8.1s.8,0,.8-.2,0-.1-.1-.1c0,0-.3,0-.6,0h-.8c0,0,0,0,0,.2ZM45.1,6.2c0,0,.2,0,.3,0s.3,0,.3,0c0,0,0-.2,0-.3s0-.2,0-.3c0,0-.2,0-.3,0s-.3,0-.3,0c0,0,0,.2,0,.3s0,.2,0,.3Z"/>
    <path d="M54.4,5.8v2.1c0,0,.2,0,.3.1v1.6c-.6,0-1,.1-1.2.1s-.4,0-.6,0c-.2,0-.3-.1-.4-.2h0c-.5.2-1,.3-1.7.3s-1.1-.1-1.5-.4c-.3-.3-.5-.8-.5-1.4s.2-1.1.6-1.3,1-.4,1.8-.4h.8c0-.3-.2-.3-.5-.3-.7,0-1.3,0-2,.1h-.4s0-1.6,0-1.6c1-.3,1.9-.4,2.7-.4s1.5.1,1.9.4c.5.3.7.8.7,1.6ZM51.5,8.1c.1,0,.3,0,.4-.2v-.4h-.4c-.2,0-.3.1-.3.3s0,.3.2.3Z"/>
    <path d="M57.6,9.6h-2.5v-5.6h2.5v.3c.5-.3,1-.4,1.4-.4s.8.2,1.1.5c.5-.3,1.1-.5,1.7-.5.9,0,1.4.2,1.8.7.3.5.5,1.2.5,2.2v2.8h-2.5v-2.5c0-.7-.1-1.1-.4-1.1h-.5c0,.2,0,.5,0,1v2.6h-2.5v-2.5c0-.7-.1-1.1-.4-1.1h-.4v3.6Z"/>
    <path d="M66.9,7.6c0,.3.2.4.5.4.7,0,1.5,0,2.2,0h.4s0,1.6,0,1.6c-1,.2-1.9.3-2.9.3s-1.7-.2-2.1-.7-.6-1.2-.6-2.2.2-1.7.7-2.3c.5-.5,1.2-.8,2.2-.8s1.7.2,2.2.6.7,1.1.7,1.9v1.1h-3.3ZM67.7,6.2c0-.2,0-.4,0-.5s-.2-.1-.3-.1-.3,0-.3.1,0,.2,0,.5h.8Z"/>
    <path d="M73.1,9.6h-2.5v-5.6h2.5v.3c.5-.3.9-.4,1.2-.4.8,0,1.3.2,1.7.6.3.4.5,1.2.5,2.3v2.8h-2.5v-2.6c0-.6-.1-1-.4-1h-.5v3.6Z"/>
    <path d="M79.7,6v1.1c0,.2,0,.3,0,.4,0,0,.1,0,.3,0h.5s0,1.9,0,1.9c-.6.1-1.1.2-1.5.2-.7,0-1.2-.1-1.5-.4-.3-.3-.4-.8-.4-1.6v-1.7h-.4v-2h.4v-1.1h2.5v1.1h.9v2h-.9Z"/>
    <path d="M81.7,4.6c.5-.5,1.2-.7,2.2-.7s1.7.2,2.2.7c.5.5.7,1.2.7,2.2s-.2,1.8-.7,2.2c-.5.5-1.2.7-2.2.7s-1.7-.2-2.2-.7c-.5-.5-.7-1.2-.7-2.2s.2-1.8.7-2.2ZM83.5,7.6c0,.1.2.2.4.2s.3,0,.4-.2c0-.1,0-.4,0-.7s0-.6,0-.7c0-.1-.2-.2-.4-.2s-.3,0-.4.2c0,.1,0,.4,0,.7s0,.6,0,.7Z"/>
  </g>
  <g>
    <path d="M12.8,19v-.6c.1,0,.5-.4.5-.4v-.2c.1,0,.2,0,.3-.1l2.7-2.7v-.5c.2-1.5-.5-2.7-2.9-3.5-1.8-.6-2.6-1-2.6-1.9s1.1-1.4,1.8-1.4c1.3,0,1.8,1,1.9,1.3l1.6-.7c-.1-.3-.8-1.8-2.7-2.1v-1.2h-1.8v1.3c-2.6.6-2.6,2.9-2.6,3,0,2.3,2.2,2.9,3.3,3.3,1.6.6,2.3,1.1,2.3,2s-1.1,1.6-2,1.6c-1.8,0-2.3-1.9-2.4-2.1l-1.7.7c.6,2.2,2.3,2.8,3,3v1.2s1.3,0,1.3,0Z"/>
    <path d="M12.7,20h-.1c-4.4,0-8-3.6-8-8s3.6-8,8-8,7.3,3,7.9,6.8l1.7-1.7c-1.3-4.1-5.1-7.1-9.6-7.1S2.6,6.5,2.6,12s4.4,9.9,9.9,10l.2-2Z"/>
  </g>
  <polygon points="13.9 18.9 13.5 22 16.6 21.6 25.3 12.9 22.6 10.2 13.9 18.9"/>
  <rect x="23.9" y="8.2" width="2.8" height="3.9" transform="translate(.2 20.9) rotate(-45)"/>
</svg>